<?xml version="1.0" encoding="UTF-8" standalone="no"?>
<!-- Created with Inkscape (http://www.inkscape.org/) -->

<svg
   width="150mm"
   height="100mm"
   viewBox="0 0 150 100"
   version="1.1"
   id="svg1"
   inkscape:version="1.3.2 (091e20e, 2023-11-25, custom)"
   sodipodi:docname="evilfrog.svg"
   xmlns:inkscape="http://www.inkscape.org/namespaces/inkscape"
   xmlns:sodipodi="http://sodipodi.sourceforge.net/DTD/sodipodi-0.dtd"
   xmlns:xlink="http://www.w3.org/1999/xlink"
   xmlns="http://www.w3.org/2000/svg"
   xmlns:svg="http://www.w3.org/2000/svg">
  <sodipodi:namedview
     id="namedview1"
     pagecolor="#505050"
     bordercolor="#ffffff"
     borderopacity="1"
     inkscape:showpageshadow="0"
     inkscape:pageopacity="0"
     inkscape:pagecheckerboard="1"
     inkscape:deskcolor="#505050"
     inkscape:document-units="mm"
     showguides="true"
     inkscape:zoom="1.0664054"
     inkscape:cx="262.56431"
     inkscape:cy="235.83901"
     inkscape:window-width="1920"
     inkscape:window-height="1051"
     inkscape:window-x="-9"
     inkscape:window-y="-9"
     inkscape:window-maximized="1"
     inkscape:current-layer="layer1" />
  <defs
     id="defs1">
    <linearGradient
       id="linearGradient7"
       inkscape:collect="always">
      <stop
         style="stop-color:#c92718;stop-opacity:1;"
         offset="0"
         id="stop7" />
      <stop
         style="stop-color:#ce504d;stop-opacity:1;"
         offset="1"
         id="stop8" />
    </linearGradient>
    <linearGradient
       inkscape:collect="always"
       xlink:href="#linearGradient7"
       id="linearGradient8"
       x1="75.701752"
       y1="67.245216"
       x2="75.248184"
       y2="-6.8895912"
       gradientUnits="userSpaceOnUse"
       gradientTransform="translate(0.3123125,-4.1227924)" />
  </defs>
  <g
     inkscape:label="Layer 1"
     inkscape:groupmode="layer"
     id="layer1">
    <ellipse
       style="fill:#ca3227;fill-opacity:1;fill-rule:evenodd;stroke:#6e0200;stroke-width:4.5493;stroke-linecap:round;stroke-linejoin:bevel;stroke-opacity:1"
       id="path7"
       cx="-69.292053"
       cy="-40.518997"
       rx="26.967234"
       ry="16.666666"
       transform="rotate(-141.8292)" />
    <ellipse
       style="fill:#ca3227;fill-opacity:1;fill-rule:evenodd;stroke:#6e0200;stroke-width:4.5493;stroke-linecap:round;stroke-linejoin:bevel;stroke-opacity:1"
       id="ellipse7"
       cx="-49.124802"
       cy="133.60619"
       rx="26.967234"
       ry="16.666666"
       transform="matrix(-0.78617195,0.61800781,0.61800781,0.78617195,0,0)" />
    <path
       id="path1"
       style="fill:url(#linearGradient8);fill-opacity:1;fill-rule:evenodd;stroke:#6e0200;stroke-width:4.17419;stroke-linecap:round;stroke-linejoin:bevel;stroke-opacity:1"
       d="M 75.312386,4.1221824 A 45.877899,45.877899 0 0 0 50.524752,11.396157 12.330253,12.330253 0 0 0 41.139795,7.0589536 12.330253,12.330253 0 0 0 28.809798,19.388951 12.330253,12.330253 0 0 0 34.296802,29.62967 45.877899,45.877899 0 0 0 29.434566,50.000003 45.877899,45.877899 0 0 0 75.312386,95.877818 45.877899,45.877899 0 0 0 121.1902,50.000003 45.877899,45.877899 0 0 0 115.04484,27.088223 12.330253,12.330253 0 0 0 121.1902,16.45218 12.330253,12.330253 0 0 0 108.86021,4.1221824 12.330253,12.330253 0 0 0 98.224165,10.267544 45.877899,45.877899 0 0 0 75.312386,4.1221824 Z" />
    <path
       id="circle3"
       style="fill:#ffffff;fill-opacity:1;fill-rule:evenodd;stroke-width:2.73689;stroke-linecap:round;stroke-linejoin:bevel"
       d="M 111.81436 -9.650057 L 102.36843 -20.002913 A 7.4179721 7.4179721 0 0 1 108.86002 -23.870378 A 7.4179721 7.4179721 0 0 1 116.27817 -16.452226 A 7.4179721 7.4179721 0 0 1 111.81436 -9.650057 z "
       transform="scale(1,-1)" />
    <path
       id="circle4"
       style="fill:#ffffff;fill-opacity:1;fill-rule:evenodd;stroke-width:2.73689;stroke-linecap:round;stroke-linejoin:bevel"
       d="M 40.424406 -12.022522 A 7.4179721 7.4179721 0 0 1 33.721973 -19.388997 A 7.4179721 7.4179721 0 0 1 41.140125 -26.807149 A 7.4179721 7.4179721 0 0 1 48.406864 -20.790462 L 40.424406 -12.022522 z "
       transform="scale(1,-1)" />
    <path
       id="circle5"
       style="fill:#000000;fill-opacity:1;fill-rule:evenodd;stroke-width:1.1834;stroke-linecap:round;stroke-linejoin:bevel"
       d="M 41.140125 -16.181441 A 3.2074459 3.2074459 0 0 1 37.932568 -19.388997 A 3.2074459 3.2074459 0 0 1 41.140125 -22.596554 A 3.2074459 3.2074459 0 0 1 44.347164 -19.388997 A 3.2074459 3.2074459 0 0 1 41.140125 -16.181441 z "
       transform="scale(1,-1)" />
    <path
       id="circle6"
       style="fill:#000000;fill-opacity:1;fill-rule:evenodd;stroke-width:1.1834;stroke-linecap:round;stroke-linejoin:bevel"
       d="M 108.86002 -13.24467 A 3.2074459 3.2074459 0 0 1 108.51172 -13.269991 L 105.65608 -16.399516 A 3.2074459 3.2074459 0 0 1 105.65247 -16.452226 A 3.2074459 3.2074459 0 0 1 108.86002 -19.659782 A 3.2074459 3.2074459 0 0 1 112.06758 -16.452226 A 3.2074459 3.2074459 0 0 1 108.86002 -13.24467 z "
       transform="scale(1,-1)" />
    <path
       id="path6"
       style="fill:#ffffff;fill-opacity:1;fill-rule:evenodd;stroke:#320605;stroke-width:4.5493;stroke-linecap:round;stroke-linejoin:bevel;stroke-opacity:1"
       d="M 49.472432 54.91241 A 26.541433 16.403509 0 0 0 62.743457 69.118262 A 26.541433 16.403509 0 0 0 89.284989 69.118262 A 26.541433 16.403509 0 0 0 102.5555 54.91241 L 49.472432 54.91241 z " />
    <path
       style="fill:#ca3227;fill-opacity:1;fill-rule:evenodd;stroke:#320605;stroke-width:4.5493;stroke-linecap:round;stroke-linejoin:bevel;stroke-opacity:1"
       d="M 41.312759,4.7593163 55.500968,19.285728"
       id="path12" />
    <path
       style="fill:#ca3227;fill-opacity:1;fill-rule:evenodd;stroke:#320605;stroke-width:4.5493;stroke-linecap:round;stroke-linejoin:bevel;stroke-opacity:1"
       d="M 95.604721,20.507876 109.79293,5.9814643"
       id="path13" />
  </g>
</svg>
