<?xml version="1.0" encoding="UTF-8" standalone="no"?>
<!-- Created with Inkscape (http://www.inkscape.org/) -->

<svg
   width="77.309372mm"
   height="17.235796mm"
   viewBox="0 0 77.309372 17.235796"
   version="1.1"
   id="svg1"
   inkscape:version="1.3.2 (091e20e, 2023-11-25, custom)"
   xml:space="preserve"
   sodipodi:docname="silo_white.svg"
   inkscape:export-filename="silo.png"
   inkscape:export-xdpi="336.43527"
   inkscape:export-ydpi="336.43527"
   xmlns:inkscape="http://www.inkscape.org/namespaces/inkscape"
   xmlns:sodipodi="http://sodipodi.sourceforge.net/DTD/sodipodi-0.dtd"
   xmlns="http://www.w3.org/2000/svg"
   xmlns:svg="http://www.w3.org/2000/svg"><sodipodi:namedview
     id="namedview1"
     pagecolor="#505050"
     bordercolor="#ffffff"
     borderopacity="1"
     inkscape:showpageshadow="0"
     inkscape:pageopacity="0"
     inkscape:pagecheckerboard="1"
     inkscape:deskcolor="#505050"
     inkscape:document-units="mm"
     inkscape:zoom="1.7755748"
     inkscape:cx="109.26039"
     inkscape:cy="151.50023"
     inkscape:window-width="1920"
     inkscape:window-height="1051"
     inkscape:window-x="-9"
     inkscape:window-y="-9"
     inkscape:window-maximized="1"
     inkscape:current-layer="layer1" /><defs
     id="defs1"><inkscape:path-effect
       effect="bspline"
       id="path-effect65"
       is_visible="true"
       lpeversion="1.3"
       weight="33.333333"
       steps="2"
       helper_size="0"
       apply_no_weight="true"
       apply_with_weight="true"
       only_selected="false"
       uniform="false" /><inkscape:path-effect
       effect="bspline"
       id="path-effect64"
       is_visible="true"
       lpeversion="1.3"
       weight="33.333333"
       steps="2"
       helper_size="0"
       apply_no_weight="true"
       apply_with_weight="true"
       only_selected="false"
       uniform="false" /><inkscape:path-effect
       effect="bspline"
       id="path-effect63"
       is_visible="true"
       lpeversion="1.3"
       weight="33.333333"
       steps="2"
       helper_size="0"
       apply_no_weight="true"
       apply_with_weight="true"
       only_selected="false"
       uniform="false" /><inkscape:path-effect
       effect="bspline"
       id="path-effect49"
       is_visible="true"
       lpeversion="1.3"
       weight="33.333333"
       steps="2"
       helper_size="0"
       apply_no_weight="true"
       apply_with_weight="true"
       only_selected="false"
       uniform="false" /><inkscape:path-effect
       effect="bspline"
       id="path-effect15"
       is_visible="true"
       lpeversion="1.3"
       weight="33.333333"
       steps="2"
       helper_size="0"
       apply_no_weight="true"
       apply_with_weight="true"
       only_selected="false"
       uniform="false" /></defs><g
     inkscape:label="Layer 1"
     inkscape:groupmode="layer"
     id="layer1"
     transform="translate(-105.87623,-174.67627)"><path
       id="path41"
       style="font-style:italic;font-weight:bold;font-size:64px;font-family:'Century Gothic';-inkscape-font-specification:'Century Gothic Bold Italic';white-space:pre;display:inline;fill:#ffffff;fill-opacity:1;fill-rule:evenodd;stroke:#ffffff;stroke-width:0.755906;stroke-linecap:round;stroke-opacity:1"
       d="m 487.97465,693.45178 c -5.1875,0 -9.72918,1.88542 -13.625,5.65625 -3.89583,3.77082 -5.84375,8.51042 -5.84375,14.21875 0,4.72915 1.4375,8.5625 4.3125,11.5 2.87498,2.91665 6.72917,4.375 11.5625,4.375 5.56248,0 10.22917,-1.85418 14,-5.5625 3.77082,-3.72917 5.65625,-8.2396 5.65625,-13.53125 0,-3.1875 -0.6875,-6.06252 -2.0625,-8.625 -1.375,-2.5625 -3.3021,-4.54168 -5.78125,-5.9375 -2.45833,-1.39584 -5.19793,-2.09375 -8.21875,-2.09375 z m -0.59375,7.90625 c 2.47915,0 4.5,0.78125 6.0625,2.34375 1.56248,1.56248 2.34375,3.59375 2.34375,6.09375 0,3.04165 -0.9271,5.75 -2.78125,8.125 -1.83334,2.35415 -4.51043,3.53125 -8.03125,3.53125 -2.47917,0 -4.46877,-0.77085 -5.96875,-2.3125 -1.47917,-1.5625 -2.21875,-3.6146 -2.21875,-6.15625 0,-2.85417 0.90625,-5.50002 2.71875,-7.9375 1.83332,-2.45834 4.45833,-3.6875 7.875,-3.6875 z"
       transform="matrix(0.26458333,0,0,0.26458333,2.2809896,-4.1818143)" /><path
       style="font-style:italic;font-weight:bold;font-size:64px;font-family:'Century Gothic';-inkscape-font-specification:'Century Gothic Bold Italic';white-space:pre;display:inline;fill:#ffffff;fill-opacity:1;fill-rule:evenodd;stroke:#ffffff;stroke-width:0.755906;stroke-linecap:round;stroke-opacity:1"
       d="m 620.28715,694.32678 9.5625,29.375 -9.65625,17.0625 h 8.8125 l 26.71875,-46.4375 h -9 l -11.625,20.1875 -6.625,-20.1875 z"
       transform="matrix(0.26458333,0,0,0.26458333,2.2809896,-4.1818143)"
       id="path40" /><path
       style="font-style:italic;font-weight:bold;font-size:64px;font-family:'Century Gothic';-inkscape-font-specification:'Century Gothic Bold Italic';white-space:pre;display:inline;fill:#ffffff;fill-opacity:1;fill-rule:evenodd;stroke:#ffffff;stroke-width:0.755906;stroke-linecap:round;stroke-opacity:1"
       d="m 589.28715,694.32678 -4.625,34 h 8.3125 l 4.5625,-34 z"
       transform="matrix(0.26458333,0,0,0.26458333,2.2809896,-4.1818143)"
       id="path39" /><path
       style="font-style:italic;font-weight:bold;font-size:64px;font-family:'Century Gothic';-inkscape-font-specification:'Century Gothic Bold Italic';white-space:pre;display:inline;fill:#ffffff;fill-opacity:1;fill-rule:evenodd;stroke:#ffffff;stroke-width:0.755906;stroke-linecap:round;stroke-opacity:1"
       d="m 532.97465,694.32678 -4.625,34 h 8.3125 l 4.5625,-34 z"
       transform="matrix(0.26458333,0,0,0.26458333,2.2809896,-4.1818143)"
       id="path38" /><path
       style="font-style:italic;font-weight:bold;font-size:64px;font-family:'Century Gothic';-inkscape-font-specification:'Century Gothic Bold Italic';white-space:pre;display:inline;fill:#ffffff;fill-opacity:1;fill-rule:evenodd;stroke:#ffffff;stroke-width:0.755906;stroke-linecap:round;stroke-opacity:1"
       d="m 440.84965,694.32678 -4.625,34 h 8.3125 l 4.5625,-34 z"
       id="path37"
       transform="matrix(0.26458333,0,0,0.26458333,2.2809896,-4.1818143)" /><path
       style="font-style:italic;font-weight:bold;font-size:64px;font-family:'Century Gothic';-inkscape-font-specification:'Century Gothic Bold Italic';white-space:pre;display:inline;fill:#ffffff;fill-opacity:1;fill-rule:evenodd;stroke:#ffffff;stroke-width:0.755906;stroke-linecap:round;stroke-opacity:1"
       d="m 565.5059,693.45178 c -5.9375,0 -10.79167,1.9375 -14.5625,5.8125 -3.77083,3.85416 -5.65625,8.52083 -5.65625,14 0,4.79166 1.52083,8.64583 4.5625,11.5625 3.06249,2.91666 7.23959,4.375 12.53125,4.375 3.39583,0 6.46875,-0.62501 9.21875,-1.875 2.77083,-1.25 5.08333,-2.97917 6.9375,-5.1875 l -6.5625,-4.625 c -2.125,2.68749 -5.17709,4.03125 -9.15625,4.03125 -2.875,0 -5.13542,-0.79167 -6.78125,-2.375 -1.64583,-1.58334 -2.46875,-3.68751 -2.46875,-6.3125 0,-2.04167 0.52083,-3.97917 1.5625,-5.8125 1.04166,-1.83334 2.4375,-3.22917 4.1875,-4.1875 1.75,-0.97917 3.76042,-1.46875 6.03125,-1.46875 3.37499,0 6.0625,1.27083 8.0625,3.8125 l 7.0625,-3.84375 c -3.29167,-5.27083 -8.28126,-7.90625 -14.96875,-7.90625 z"
       transform="matrix(0.26458333,0,0,0.26458333,2.2809896,-4.1818143)"
       id="path36" /><path
       style="font-style:italic;font-weight:bold;font-size:64px;font-family:'Century Gothic';-inkscape-font-specification:'Century Gothic Bold Italic';white-space:pre;display:inline;fill:#ffffff;fill-opacity:1;fill-rule:evenodd;stroke:#ffffff;stroke-width:0.755906;stroke-linecap:round;stroke-opacity:1"
       d="m 526.3809,693.45178 c -3.125,0 -5.80209,1.83333 -8.03125,5.5 l 0.59375,-4.625 h -7.4375 l -4.4375,34 h 8.375 l 1.625,-12.78125 c 0.72916,-5.72917 1.71875,-9.53126 2.96875,-11.40625 1.27083,-1.89584 2.70833,-2.84375 4.3125,-2.84375 0.29166,0 0.75,0.0937 1.375,0.28125 l 3,-7.53125 c -0.8125,-0.39584 -1.59375,-0.59375 -2.34375,-0.59375 z"
       transform="matrix(0.26458333,0,0,0.26458333,2.2809896,-4.1818143)"
       id="path35" /><path
       style="font-style:italic;font-weight:bold;font-size:64px;font-family:'Century Gothic';-inkscape-font-specification:'Century Gothic Bold Italic';white-space:pre;display:inline;fill:#ffffff;fill-opacity:1;fill-rule:evenodd;stroke:#ffffff;stroke-width:0.755906;stroke-linecap:round;stroke-opacity:1"
       d="m 421.9434,693.45178 c -2.9375,0 -5.48959,0.89583 -7.65625,2.6875 -2.14584,1.79166 -3.21875,4.11458 -3.21875,6.96875 0,2.04166 0.6875,3.97916 2.0625,5.8125 0.97916,1.31249 2.76041,2.88541 5.34375,4.71875 2.22916,1.58333 3.59375,2.6875 4.09375,3.3125 0.49999,0.60416 0.75,1.19791 0.75,1.78125 0,0.72916 -0.33334,1.36458 -1,1.90625 -0.64584,0.52083 -1.52084,0.78125 -2.625,0.78125 -2.77084,0 -5.32292,-1.54167 -7.65625,-4.625 l -5.15625,6 c 2.29166,2.43749 4.36458,4.11458 6.21875,5.03125 1.87499,0.91666 3.94791,1.375 6.21875,1.375 3.93749,0 6.9375,-1.12501 9,-3.375 2.08333,-2.25 3.125,-4.63542 3.125,-7.15625 0,-1.91667 -0.51042,-3.68751 -1.53125,-5.3125 -1,-1.64584 -3.09376,-3.61459 -6.28125,-5.90625 -2,-1.4375 -3.19792,-2.40625 -3.59375,-2.90625 -0.41667,-0.5 -0.625,-1 -0.625,-1.5 0,-0.52084 0.26041,-0.98959 0.78125,-1.40625 0.52083,-0.41667 1.15625,-0.625 1.90625,-0.625 0.97916,0 2.03125,0.36458 3.15625,1.09375 1.12499,0.70833 2.19791,1.82291 3.21875,3.34375 l 3.96875,-6.375 c -1.22917,-1.79167 -2.77084,-3.17709 -4.625,-4.15625 -1.85417,-0.97917 -3.81251,-1.46875 -5.875,-1.46875 z"
       transform="matrix(0.26458333,0,0,0.26458333,2.2809896,-4.1818143)"
       id="path33" /><path
       style="font-style:italic;font-weight:bold;font-size:64px;font-family:'Century Gothic';-inkscape-font-specification:'Century Gothic Bold Italic';white-space:pre;display:inline;fill:#ffffff;fill-opacity:1;fill-rule:evenodd;stroke:#ffffff;stroke-width:0.755906;stroke-linecap:round;stroke-opacity:1"
       d="m 607.47465,681.70178 -1.75,12.625 h -4.09375 l -0.96875,7.1875 h 4.09375 l -3.6875,26.8125 h 8.34375 l 3.65625,-26.8125 h 5.25 l 1,-7.1875 h -5.28125 l 1.75,-12.625 z"
       transform="matrix(0.26458333,0,0,0.26458333,2.2809896,-4.1818143)"
       id="path32" /><path
       style="font-style:italic;font-weight:bold;font-size:64px;font-family:'Century Gothic';-inkscape-font-specification:'Century Gothic Bold Italic';white-space:pre;display:inline;fill:#ffffff;fill-opacity:1;fill-rule:evenodd;stroke:#ffffff;stroke-width:0.755906;stroke-linecap:round;stroke-opacity:1"
       d="m 457.9434,681.20178 -6.25,47.125 h 8.3125 l 6.25,-47.125 z"
       transform="matrix(0.26458333,0,0,0.26458333,2.2809896,-4.1818143)"
       id="path31" /><path
       id="path61"
       style="fill:#ffffff;fill-opacity:1;fill-rule:evenodd;stroke:#ffffff;stroke-width:0;stroke-linecap:round;stroke-dasharray:none;stroke-opacity:1"
       d="m 112.11409,174.92627 -2.73214,3.86488 h 72.33357 l 1.22008,-2.12028 v -1.7446 z m 8.22895,0.56844 c 0.37482,0 0.69454,0.13505 0.95912,0.40515 0.2701,0.26458 0.40514,0.58428 0.40514,0.95911 0,0.37482 -0.13504,0.6973 -0.40514,0.96738 -0.26458,0.26458 -0.5843,0.39688 -0.95912,0.39688 -0.37483,0 -0.69729,-0.1323 -0.96738,-0.39688 -0.26459,-0.27008 -0.39688,-0.59256 -0.39688,-0.96738 0,-0.37483 0.13229,-0.69453 0.39688,-0.95911 0.27009,-0.2701 0.59255,-0.40515 0.96738,-0.40515 z m 24.37474,0 c 0.37482,0 0.69454,0.13505 0.95912,0.40515 0.2701,0.26458 0.40514,0.58428 0.40514,0.95911 0,0.37482 -0.13504,0.69731 -0.40514,0.96738 -0.26458,0.26458 -0.5843,0.39688 -0.95912,0.39688 -0.37483,0 -0.69728,-0.1323 -0.96738,-0.39688 -0.26458,-0.27007 -0.39688,-0.59256 -0.39688,-0.96738 0,-0.37483 0.1323,-0.69453 0.39688,-0.95911 0.2701,-0.2701 0.59255,-0.40515 0.96738,-0.40515 z m 14.89935,0 c 0.37482,0 0.69454,0.13505 0.95912,0.40515 0.27008,0.26458 0.40514,0.58428 0.40514,0.95911 0,0.37482 -0.13506,0.69731 -0.40514,0.96738 -0.26458,0.26458 -0.5843,0.39688 -0.95912,0.39688 -0.37483,0 -0.69728,-0.1323 -0.96738,-0.39688 -0.26458,-0.27007 -0.39688,-0.59256 -0.39688,-0.96738 0,-0.37483 0.1323,-0.69453 0.39688,-0.95911 0.2701,-0.2701 0.59255,-0.40515 0.96738,-0.40515 z" /><path
       id="path2"
       style="fill:#ffffff;fill-opacity:1;fill-rule:evenodd;stroke:#ffffff;stroke-width:0.5;stroke-linecap:round;stroke-dasharray:none;stroke-opacity:1"
       d="m 166.54573,188.80583 h -60.4195" /><path
       id="path62"
       style="fill:#ffffff;fill-opacity:1;fill-rule:evenodd;stroke:#ffffff;stroke-width:0.5;stroke-linecap:round;stroke-dasharray:none;stroke-opacity:1"
       d="m 172.19442,188.97647 h 3.66113"
       sodipodi:nodetypes="cc" /><path
       style="fill:#ffffff;fill-opacity:1;fill-rule:evenodd;stroke:#ffffff;stroke-width:0.5;stroke-linecap:round;stroke-dasharray:none;stroke-opacity:1"
       d="m 106.12623,188.80583 c 0,-1.80321 0,-3.60643 0,-5.40963"
       id="path14"
       inkscape:path-effect="#path-effect15"
       inkscape:original-d="m 106.12623,188.80583 c 0,-1.80321 0,-3.60643 0,-5.40963"
       sodipodi:nodetypes="cc" /><path
       style="fill:#ffffff;fill-opacity:1;fill-rule:evenodd;stroke:#ffffff;stroke-width:0.5;stroke-linecap:round;stroke-dasharray:none;stroke-opacity:1"
       d="m 106.12623,183.3962 c 1.99603,-2.82331 3.99206,-5.64662 5.98809,-8.46993"
       id="path48"
       inkscape:path-effect="#path-effect49"
       inkscape:original-d="m 106.12623,183.3962 c 1.99603,-2.82331 3.99206,-5.64662 5.98809,-8.46993"
       sodipodi:nodetypes="cc" /><path
       style="fill:#ffffff;fill-opacity:1;fill-rule:evenodd;stroke:#ffffff;stroke-width:0.5;stroke-linecap:round;stroke-dasharray:none;stroke-opacity:1"
       d="m 175.85555,188.97647 c 2.36001,-4.10198 4.72003,-8.20397 7.08005,-12.30596"
       id="path63"
       inkscape:original-d="m 175.85555,188.97647 c 2.36001,-4.10198 4.72003,-8.20397 7.08005,-12.30596"
       inkscape:path-effect="#path-effect63"
       sodipodi:nodetypes="cc" /><path
       style="fill:#ffffff;fill-opacity:1;fill-rule:evenodd;stroke:#ffffff;stroke-width:0.5;stroke-linecap:round;stroke-dasharray:none;stroke-opacity:1"
       d="m 182.9356,176.67087 c 0,0 0,-1.7446 0,-1.7446"
       id="path64"
       inkscape:path-effect="#path-effect64"
       inkscape:original-d="m 182.9356,176.67087 v -1.7446" /><path
       style="fill:#ffffff;fill-opacity:1;fill-rule:evenodd;stroke:#ffffff;stroke-width:0.499999;stroke-linecap:round;stroke-dasharray:none;stroke-opacity:1"
       d="m 182.9356,174.92627 c 0,0 -70.82128,0 -70.82128,0"
       id="path65"
       inkscape:path-effect="#path-effect65"
       inkscape:original-d="M 182.9356,174.92627 H 112.11432" /></g></svg>
